# Blender v2.76 (sub 0) OBJ File: ''
# www.blender.org
mtllib statue.mtl
o Cube.001
v -11.020060 11.504682 -11.587798
v 11.176451 11.504682 -11.587798
v 11.176451 27.524683 -11.587795
v -11.020060 27.524683 -11.587795
v -7.931810 6.698683 -16.393797
v 8.088190 6.698683 -16.393789
v 16.098200 34.985126 -44.680233
v -15.941800 34.985126 -44.680233
v -11.135799 38.383476 -48.078583
v 11.292200 38.383488 -48.078583
v 11.843200 18.026533 -27.721638
v 7.024440 12.362614 -22.057718
v -15.941800 23.657274 -33.352386
v -12.678680 30.824495 -40.519604
v -12.678690 28.036158 -37.731266
v 5.960700 18.026533 -27.721638
v 0.078200 23.657274 -33.352375
v 16.098200 23.657274 -33.352375
v 20.904200 40.592129 -39.073219
v 20.904200 29.264273 -27.745386
v -20.747799 29.264273 -27.745386
v -20.747799 40.592129 -39.073235
v -11.135799 54.403488 -48.078583
v 11.292200 54.403488 -48.078583
v -11.686810 18.026533 -27.721647
v -14.093519 62.413475 -40.068577
v 14.249920 62.413475 -40.068577
v -9.317590 62.413471 -26.329720
v 9.473990 62.413471 -26.329710
v -5.096340 54.403477 -18.319719
v 5.252740 54.403484 -18.319710
v -6.617880 54.403473 -11.554622
v 6.774270 54.403481 -11.554612
v 6.774270 54.403481 -0.225061
v 21.957249 54.403473 -0.225061
v 21.957249 54.403473 -11.554612
v 13.078470 41.833874 -23.032543
v -12.922070 41.833874 -23.032553
v -6.868060 12.362604 -22.057718
v -5.804310 18.026533 -27.721647
v -2.912300 18.026535 -29.302467
v 3.068690 18.026535 -29.302458
v -6.336180 15.194564 -24.889688
v 6.492570 15.194573 -24.889677
v 7.024450 15.146594 -22.101938
v -6.868060 15.146584 -22.101938
v 12.835079 30.824495 -40.519596
v 12.835079 30.824495 -38.251598
v 0.078200 30.824495 -38.251598
v 0.078200 28.036158 -37.731266
v 12.835079 28.036158 -37.731266
v -12.678680 30.824495 -38.251598
v -6.617880 54.403473 -0.225071
v -6.617880 54.403469 18.355009
v 6.774270 54.403469 18.355019
v 11.176451 27.524681 -0.258246
v -11.020060 27.524681 -0.258246
v -21.800850 54.403473 -0.225071
v -21.483780 47.568813 -0.258242
v 11.176451 27.524677 18.321835
v -11.020060 27.524677 18.321825
v -11.020070 -0.062193 18.321821
v 11.176451 -0.062183 18.321831
v -11.020070 -0.062180 -0.258250
v 11.176451 -0.062180 -0.258250
v 40.080379 54.403473 -0.225061
v 34.691261 54.403473 -11.554612
v -21.800850 54.403473 -11.554622
v -21.483780 47.568813 -11.587792
v -34.033230 47.568821 -11.587792
v -34.534851 54.403481 -11.554622
v 21.640169 47.568821 -11.587792
v 21.640169 47.568813 -0.258242
v 39.500648 47.568813 -0.258242
v 80.178192 47.568821 -48.347862
v 80.178192 54.403481 -48.314693
v -39.923981 54.403481 -0.225071
v -72.750542 54.259998 -54.259010
v -80.021812 54.403488 -48.314693
v 34.189621 47.568813 -11.587792
v -39.344261 47.568821 -0.258242
v 72.168190 54.259998 -54.259003
v 80.143417 54.530941 -81.590149
v 72.133415 54.387463 -81.590141
v -72.223389 47.712318 -54.290794
v -72.046593 47.839783 -81.590157
v -72.046593 54.387463 -81.590157
v 72.168190 47.712311 -54.290794
v -80.021812 47.568829 -48.347870
v -80.056595 54.530952 -81.590157
v 80.143417 47.696281 -81.590149
v 72.133415 47.839771 -81.590149
v -80.056595 47.696301 -81.590157
v 11.106900 11.449856 -151.592529
v -11.089621 11.449865 -151.592529
v -11.089621 27.469866 -151.592529
v 11.106900 27.469854 -151.592529
v 8.018641 6.643854 -146.786530
v -8.001360 6.643854 -146.786530
v -16.011360 34.930298 -118.500069
v 16.028629 34.930290 -118.500069
v 11.222630 38.328640 -115.101707
v -11.205359 38.328651 -115.101723
v -11.756371 17.971712 -135.458664
v -6.937610 12.307782 -141.122589
v 16.028629 23.602440 -129.827911
v 12.765520 30.769657 -122.660698
v 12.765520 27.981321 -125.449043
v -5.873870 17.971703 -135.458664
v 0.008640 23.602440 -129.827942
v -16.011360 23.602451 -129.827942
v -20.817360 40.537300 -124.107079
v -20.817360 29.209454 -135.434937
v 20.834639 29.209444 -135.434921
v 20.834639 40.537289 -124.107063
v 11.222640 54.348640 -115.101707
v -11.205359 54.348652 -115.101723
v 11.773640 17.971703 -135.458664
v 14.180360 62.358639 -123.111710
v -14.163080 62.358650 -123.111710
v 9.404429 62.358654 -136.850571
v -9.387150 62.358654 -136.850601
v 5.183180 54.348656 -144.860565
v -5.165900 54.348656 -144.860580
v 6.704710 54.348656 -151.625687
v -6.687440 54.348656 -151.625687
v -6.687430 54.348660 -162.955231
v -21.870411 54.348660 -162.955231
v -21.870411 54.348656 -151.625687
v -12.991630 41.779053 -140.147766
v 13.008910 41.779045 -140.147766
v 6.954890 12.307782 -141.122589
v 5.891140 17.971703 -135.458664
v 2.999130 17.971701 -133.877853
v -2.981860 17.971701 -133.877853
v 6.423010 15.139744 -138.290634
v -6.405740 15.139744 -138.290634
v -6.937610 15.091763 -141.078369
v 6.954890 15.091763 -141.078369
v -12.748250 30.769670 -122.660706
v -12.748250 30.769672 -124.928719
v 0.008640 30.769659 -124.928719
v 0.008640 27.981321 -125.449043
v -12.748250 27.981331 -125.449043
v 12.765520 30.769659 -124.928703
v 6.704720 54.348660 -162.955231
v 6.704720 54.348663 -181.535294
v -6.687430 54.348663 -181.535309
v -11.089610 27.469868 -162.922073
v 11.106900 27.469856 -162.922073
v 21.887701 54.348648 -162.955231
v 21.570621 47.513988 -162.922058
v -11.089610 27.469872 -181.502151
v 11.106900 27.469860 -181.502151
v 11.106900 -0.117000 -181.502151
v -11.089621 -0.117000 -181.502151
v 11.106900 -0.117003 -162.922073
v -11.089621 -0.117003 -162.922073
v -39.993549 54.348667 -162.955231
v -34.604420 54.348663 -151.625687
v 21.887691 54.348644 -151.625687
v 21.570621 47.513985 -151.592514
v 34.120071 47.513985 -151.592514
v 34.621689 54.348644 -151.625671
v -21.553329 47.513992 -151.592514
v -21.553329 47.513996 -162.922058
v -39.413818 47.513996 -162.922058
v -80.091362 47.514000 -114.832443
v -80.091362 54.348660 -114.865608
v 40.010811 54.348648 -162.955231
v 72.837364 54.205151 -108.921272
v 80.108643 54.348640 -114.865601
v -34.102791 47.513992 -151.592514
v 39.431099 47.513988 -162.922058
v -72.081367 54.205170 -108.921303
v 80.108643 47.513981 -114.832436
v -72.081367 47.657482 -108.889526
v 72.310211 47.657459 -108.889496
vn 0.000000 -0.000000 1.000000
vn -0.000000 -0.707100 0.707100
vn 0.000000 -0.707100 -0.707100
vn 0.855200 -0.366500 -0.366500
vn -0.855200 -0.366500 -0.366500
vn 0.000000 0.000000 -1.000000
vn -0.678300 0.039500 -0.733700
vn 0.678300 0.039500 -0.733700
vn -0.890400 -0.433600 -0.138500
vn -0.766700 -0.618500 -0.172000
vn 0.766700 -0.618500 -0.172000
vn 0.890400 -0.433600 -0.138500
vn 0.000000 0.707100 -0.707100
vn -0.000000 1.000000 0.000000
vn -0.000000 0.707100 0.707100
vn -0.856700 0.000000 0.515800
vn 0.856700 0.000000 0.515800
vn 0.800900 0.305500 0.515100
vn -0.937700 0.263400 0.226600
vn -0.818800 0.225600 -0.527900
vn 0.818800 0.225600 -0.527900
vn 0.937700 0.263400 0.226600
vn -0.800900 0.305500 0.515100
vn 0.861100 0.319800 0.395300
vn -0.861100 0.319800 0.395300
vn 0.869000 0.223000 0.441600
vn -0.869000 0.223000 0.441600
vn -0.448900 -0.352300 -0.821200
vn 0.000000 -1.000000 -0.000000
vn 0.448900 -0.352300 -0.821200
vn 0.000000 -0.583900 -0.811800
vn 0.000000 -0.999900 -0.017200
vn -0.000000 0.015900 0.999900
vn -0.982300 0.003000 0.187500
vn 0.982300 0.003000 0.187500
vn 0.000000 -0.183400 -0.983000
vn -1.000000 0.000000 0.000000
vn 1.000000 -0.000000 0.000000
vn -0.001400 -0.001800 1.000000
vn -0.000000 -0.000600 1.000000
vn -0.000000 -0.001200 1.000000
vn -0.986900 0.161600 0.000000
vn 0.986900 0.161600 0.000000
vn 0.000000 0.004900 -1.000000
vn -0.001400 0.001800 -1.000000
vn 0.001400 -0.001800 1.000000
vn 0.886500 -0.462800 -0.000000
vn 0.001400 0.001800 -1.000000
vn -0.886500 -0.462800 -0.000000
vn 0.765300 -0.035600 0.642700
vn 0.004200 1.000000 -0.005200
vn 0.000000 -0.004900 1.000000
vn -0.019500 0.999800 0.004200
vn 0.999100 0.040200 0.016300
vn -0.749100 0.031300 -0.661800
vn -0.004100 -1.000000 -0.005100
vn 0.004100 -1.000000 -0.005200
vn -0.765300 -0.035600 0.642700
vn 0.743900 0.060400 -0.665500
vn -0.004100 1.000000 -0.005100
vn 0.020500 0.999800 0.004400
vn 1.000000 0.000000 -0.001000
vn -1.000000 -0.000000 0.001300
vn -0.016400 -0.999900 -0.004200
vn 0.016600 -0.999900 -0.004200
vn -1.000000 -0.000000 0.001000
vn -0.855200 -0.366500 0.366500
vn 0.855200 -0.366500 0.366500
vn 0.678300 0.039500 0.733700
vn -0.678300 0.039500 0.733700
vn 0.890400 -0.433600 0.138500
vn 0.766700 -0.618500 0.172000
vn -0.766700 -0.618500 0.172000
vn -0.890400 -0.433600 0.138500
vn 0.856700 0.000000 -0.515800
vn -0.856700 0.000000 -0.515800
vn -0.800900 0.305500 -0.515100
vn 0.937700 0.263400 -0.226600
vn 0.818800 0.225600 0.527900
vn -0.818800 0.225600 0.527900
vn -0.937700 0.263400 -0.226600
vn 0.800900 0.305500 -0.515100
vn -0.861100 0.319800 -0.395300
vn 0.861100 0.319800 -0.395300
vn -0.869000 0.223000 -0.441600
vn 0.869000 0.223000 -0.441600
vn 0.448900 -0.352300 0.821200
vn -0.448900 -0.352300 0.821200
vn 0.000000 -0.583900 0.811800
vn 0.000000 -0.999900 0.017200
vn 0.000000 0.015900 -0.999900
vn 0.982300 0.003000 -0.187500
vn -0.982300 0.003000 -0.187500
vn -0.000000 -0.183400 0.983000
vn 0.001400 -0.001800 -1.000000
vn 0.000000 -0.000600 -1.000000
vn 0.000000 -0.001200 -1.000000
vn 0.000000 0.004900 1.000000
vn 0.001400 0.001800 1.000000
vn -0.001400 -0.001800 -1.000000
vn -0.001400 0.001800 1.000000
vn -0.765300 -0.035600 -0.642700
vn -0.004200 1.000000 0.005200
vn 0.000000 -0.004900 -1.000000
vn 0.020200 0.999800 -0.006000
vn 0.749100 0.031300 0.661800
vn 0.004100 -1.000000 0.005100
vn -0.004100 -1.000000 0.005200
vn 0.765300 -0.035600 -0.642700
vn -0.743900 0.060400 0.665500
vn 0.004100 1.000000 0.005100
vn -0.021200 0.999800 -0.006200
vn 1.000000 -0.000000 -0.001300
vn 0.015700 -0.999900 0.006000
vn -0.999100 0.040200 -0.016400
vn -0.015900 -0.999900 0.006000
usemtl Material.001
s 1
f 1//1 2//1 3//1 4//1
f 5//2 6//2 2//2 1//2
f 7//3 8//3 9//3 10//3
f 11//3 6//3 12//3
f 13//3 8//3 14//3 15//3
f 11//3 16//3 17//3 18//3
f 18//4 7//4 19//4 20//4
f 8//5 13//5 21//5 22//5
f 10//6 9//6 23//6 24//6
f 9//7 8//7 22//7 23//7
f 10//8 24//8 19//8 7//8
f 5//9 1//9 25//9
f 13//10 25//10 1//10 21//10
f 11//11 18//11 20//11 2//11
f 11//12 2//12 6//12
f 24//13 23//13 26//13 27//13
f 27//14 26//14 28//14 29//14
f 29//15 28//15 30//15 31//15
f 31//14 30//14 32//14 33//14
f 33//14 34//14 35//14 36//14
f 1//16 4//16 21//16
f 2//17 20//17 3//17
f 37//18 3//18 20//18
f 30//19 38//19 4//19 32//19
f 23//20 22//20 26//20
f 24//21 27//21 19//21
f 31//22 33//22 3//22 37//22
f 38//23 21//23 4//23
f 19//24 27//24 37//24 20//24
f 22//25 21//25 38//25 26//25
f 27//26 29//26 31//26 37//26
f 26//27 38//27 30//27 28//27
f 39//3 5//3 25//3
f 17//3 40//3 25//3 13//3
f 17//28 41//28 40//28
f 39//3 12//3 6//3 5//3
f 16//29 40//29 41//29 42//29
f 16//30 42//30 17//30
f 41//31 17//31 42//31
f 43//3 39//3 25//3
f 11//3 12//3 44//3
f 43//32 44//32 45//32 46//32
f 40//3 43//3 25//3
f 16//3 11//3 44//3
f 40//3 16//3 44//3 43//3
f 39//33 12//33 45//33 46//33
f 44//34 12//34 45//34
f 39//35 43//35 46//35
f 47//29 48//29 49//29
f 18//3 17//3 50//3 51//3
f 17//3 13//3 15//3 50//3
f 8//3 7//3 47//3 14//3
f 7//3 18//3 51//3 47//3
f 52//29 14//29 49//29
f 14//29 47//29 49//29
f 51//36 50//36 49//36 48//36
f 50//36 15//36 52//36 49//36
f 51//37 48//37 47//37
f 14//38 52//38 15//38
f 34//14 53//14 54//14 55//14
f 4//29 3//29 56//29 57//29
f 57//39 53//39 58//39 59//39
f 33//14 32//14 53//14 34//14
f 60//40 55//41 54//41 61//40
f 53//42 57//42 61//42 54//42
f 60//40 61//40 62//1 63//1
f 56//43 34//43 55//43 60//43
f 64//29 65//29 63//29 62//29
f 56//38 60//38 63//38 65//38
f 57//6 56//6 65//6 64//6
f 61//37 57//37 64//37 62//37
f 36//14 35//14 66//14 67//14
f 68//44 69//44 70//44 71//44
f 3//45 33//45 36//45 72//45
f 53//14 32//14 68//14 58//14
f 34//46 56//46 73//46 35//46
f 56//47 3//47 72//47 73//47
f 32//48 4//48 69//48 68//48
f 4//49 57//49 59//49 69//49
f 66//50 74//50 75//50 76//50
f 77//51 71//51 78//51 79//51
f 58//14 68//14 71//14 77//14
f 35//52 73//52 74//52 66//52
f 72//44 36//44 67//44 80//44
f 73//29 72//29 80//29 74//29
f 69//29 59//29 81//29 70//29
f 59//52 58//52 77//52 81//52
f 82//53 76//53 83//53 84//53
f 78//54 85//54 86//54 87//54
f 80//55 67//55 82//55 88//55
f 74//56 80//56 88//56 75//56
f 70//57 81//57 89//57 85//57
f 81//58 77//58 79//58 89//58
f 71//59 70//59 85//59 78//59
f 67//60 66//60 76//60 82//60
f 79//61 78//61 87//61 90//61
f 76//62 75//62 91//62 83//62
f 88//63 82//63 84//63 92//63
f 75//64 88//64 92//64 91//64
f 85//65 89//65 93//65 86//65
f 89//66 79//66 90//66 93//66
f 94//6 95//6 96//6 97//6
f 98//3 99//3 95//3 94//3
f 100//2 101//2 102//2 103//2
f 104//2 99//2 105//2
f 106//2 101//2 107//2 108//2
f 104//2 109//2 110//2 111//2
f 111//67 100//67 112//67 113//67
f 101//68 106//68 114//68 115//68
f 103//1 102//1 116//1 117//1
f 102//69 101//69 115//69 116//69
f 103//70 117//70 112//70 100//70
f 98//71 94//71 118//71
f 106//72 118//72 94//72 114//72
f 104//73 111//73 113//73 95//73
f 104//74 95//74 99//74
f 117//15 116//15 119//15 120//15
f 120//14 119//14 121//14 122//14
f 122//13 121//13 123//13 124//13
f 124//14 123//14 125//14 126//14
f 126//14 127//14 128//14 129//14
f 94//75 97//75 114//75
f 95//76 113//76 96//76
f 130//77 96//77 113//77
f 123//78 131//78 97//78 125//78
f 116//79 115//79 119//79
f 117//80 120//80 112//80
f 124//81 126//81 96//81 130//81
f 131//82 114//82 97//82
f 112//83 120//83 130//83 113//83
f 115//84 114//84 131//84 119//84
f 120//85 122//85 124//85 130//85
f 119//86 131//86 123//86 121//86
f 132//2 98//2 118//2
f 110//2 133//2 118//2 106//2
f 110//87 134//87 133//87
f 132//2 105//2 99//2 98//2
f 109//29 133//29 134//29 135//29
f 109//88 135//88 110//88
f 134//89 110//89 135//89
f 136//2 132//2 118//2
f 104//2 105//2 137//2
f 136//90 137//90 138//90 139//90
f 133//2 136//2 118//2
f 109//2 104//2 137//2
f 133//2 109//2 137//2 136//2
f 132//91 105//91 138//91 139//91
f 137//92 105//92 138//92
f 132//93 136//93 139//93
f 140//29 141//29 142//29
f 111//2 110//2 143//2 144//2
f 110//2 106//2 108//2 143//2
f 101//2 100//2 140//2 107//2
f 100//2 111//2 144//2 140//2
f 145//29 107//29 142//29
f 107//29 140//29 142//29
f 144//94 143//94 142//94 141//94
f 143//94 108//94 145//94 142//94
f 144//38 141//38 140//38
f 107//37 145//37 108//37
f 127//14 146//14 147//14 148//14
f 97//29 96//29 149//29 150//29
f 150//95 146//95 151//95 152//95
f 126//14 125//14 146//14 127//14
f 153//96 148//97 147//97 154//96
f 146//43 150//43 154//43 147//43
f 153//96 154//96 155//6 156//6
f 149//42 127//42 148//42 153//42
f 157//29 158//29 156//29 155//29
f 149//37 153//37 156//37 158//37
f 150//1 149//1 158//1 157//1
f 154//38 150//38 157//38 155//38
f 129//14 128//14 159//14 160//14
f 161//98 162//98 163//98 164//98
f 96//99 126//99 129//99 165//99
f 146//14 125//14 161//14 151//14
f 127//100 149//100 166//100 128//100
f 149//49 96//49 165//49 166//49
f 125//101 97//101 162//101 161//101
f 97//47 150//47 152//47 162//47
f 159//102 167//102 168//102 169//102
f 170//103 164//103 171//103 172//103
f 151//14 161//14 164//14 170//14
f 128//104 166//104 167//104 159//104
f 165//98 129//98 160//98 173//98
f 166//29 165//29 173//29 167//29
f 162//29 152//29 174//29 163//29
f 152//104 151//104 170//104 174//104
f 175//105 169//105 90//105 87//105
f 176//62 172//62 83//62 91//62
f 173//106 160//106 175//106 177//106
f 167//107 173//107 177//107 168//107
f 163//108 174//108 176//108 178//108
f 174//109 170//109 172//109 176//109
f 164//110 163//110 178//110 171//110
f 160//111 159//111 169//111 175//111
f 172//112 171//112 84//112 83//112
f 169//66 168//66 93//66 90//66
f 177//113 175//113 87//113 86//113
f 168//114 177//114 86//114 93//114
f 171//115 178//115 92//115 84//115
f 178//116 176//116 91//116 92//116
