# Blender v2.76 (sub 0) OBJ File: 'ola.blend'
# www.blender.org
mtllib ola.mtl
o Curve.001_Mesh
v 0.370075 0.191729 -0.051747
v 0.421377 0.191729 -0.051747
v 0.482568 0.347455 -0.051747
v 0.738458 0.347455 -0.051747
v 0.836735 0.099034 -0.051747
v 0.892981 0.099034 -0.051747
v 0.637709 0.747894 -0.051747
v 0.588262 0.747894 -0.051747
v 0.501729 0.396892 -0.051747
v 0.610513 0.673121 -0.051747
v 0.719297 0.396892 -0.051747
v -0.351461 0.179449 -0.051739
v -0.095672 0.329688 -0.051744
v -0.095614 0.617616 -0.051741
v -0.351343 0.767664 -0.051734
v -0.607133 0.617427 -0.051729
v -0.607190 0.329498 -0.051732
v -0.351460 0.241245 -0.051739
v -0.553449 0.360420 -0.051733
v -0.553404 0.585943 -0.051731
v -0.351367 0.705267 -0.051735
v -0.149997 0.586093 -0.051741
v -0.150042 0.360570 -0.051743
v 0.004657 0.191694 -0.051745
v 0.306858 0.191728 -0.051747
v 0.306859 0.241123 -0.051747
v 0.059037 0.241099 -0.051746
v 0.059104 0.821455 -0.051743
v 0.004733 0.821439 -0.051742
v 0.369972 0.191803 -0.065507
v 0.421274 0.191803 -0.065507
v 0.482465 0.347529 -0.065507
v 0.738355 0.347529 -0.065507
v 0.836632 0.099109 -0.065507
v 0.892878 0.099109 -0.065507
v 0.637606 0.747968 -0.065507
v 0.588159 0.747968 -0.065507
v 0.501626 0.396967 -0.065507
v 0.610410 0.673195 -0.065507
v 0.719194 0.396967 -0.065507
v -0.351562 0.179523 -0.065498
v -0.095774 0.329761 -0.065503
v -0.095716 0.617689 -0.065500
v -0.351444 0.767736 -0.065493
v -0.607233 0.617499 -0.065488
v -0.607291 0.329570 -0.065491
v -0.351561 0.241318 -0.065498
v -0.553550 0.360492 -0.065492
v -0.553505 0.586016 -0.065490
v -0.351468 0.705340 -0.065494
v -0.150098 0.586166 -0.065500
v -0.150144 0.360643 -0.065502
v 0.004555 0.191768 -0.065505
v 0.306755 0.191802 -0.065507
v 0.306756 0.241198 -0.065507
v 0.058935 0.241173 -0.065505
v 0.059002 0.821528 -0.065502
v 0.004632 0.821513 -0.065501
vn -0.000000 0.000000 -1.000000
vn 0.000000 0.000000 1.000000
vn 0.000100 -1.000000 -0.005400
vn -1.000000 0.000100 0.007400
vn 1.000000 -0.000200 -0.007300
vn -0.506100 -0.862500 -0.000900
vn 0.000000 -1.000000 -0.005400
vn 1.000000 -0.000200 -0.007400
vn -1.000000 0.000200 0.007300
vn -0.930900 0.365200 0.008900
vn -0.929900 -0.367900 0.005000
vn -0.930400 -0.366400 0.005000
vn 0.930400 -0.366400 -0.008900
vn 0.506400 -0.862200 -0.008300
vn 1.000000 -0.000100 -0.007400
vn -0.506400 0.862200 0.008200
vn 0.508200 0.861300 0.000800
vn 0.930700 -0.365700 -0.008900
vn 0.508500 -0.861000 -0.008200
vn 0.000000 1.000000 0.005400
vn -0.000100 1.000000 0.005400
vn 1.000000 -0.000000 -0.007500
vn -0.509300 -0.860600 -0.000800
vn 0.506100 0.862500 0.000900
vn -0.509700 0.860300 0.008300
vn -0.000300 1.000000 0.005300
vn -1.000000 0.000200 0.007400
vn 0.930600 0.366100 -0.005000
vn 0.506400 -0.862200 -0.008400
vn 0.508500 -0.861000 -0.008300
vn -0.509700 0.860300 0.008400
usemtl SVGMat.028
s off
f 42//1 52//1 51//1
f 27//2 24//2 25//2
f 8//2 1//2 9//2
f 13//2 14//2 22//2
f 11//2 4//2 6//2
f 38//1 30//1 37//1
f 17//2 19//2 20//2
f 46//1 49//1 48//1
f 56//1 53//1 58//1
f 40//1 33//1 32//1
f 24//3 53//3 54//3
f 29//4 58//4 53//4
f 48//5 49//5 20//5
f 17//6 46//6 41//6
f 1//7 30//7 31//7
f 42//8 43//8 14//8
f 16//9 45//9 46//9
f 8//10 37//10 30//10
f 4//11 33//11 34//11
f 10//12 39//12 40//12
f 38//13 39//13 10//13
f 12//14 41//14 42//14
f 56//15 57//15 28//15
f 44//16 45//16 16//16
f 47//17 48//17 19//17
f 5//7 34//7 35//7
f 3//7 32//7 33//7
f 31//18 32//18 3//18
f 20//19 49//19 50//19
f 40//20 38//20 9//20
f 55//21 56//21 27//21
f 54//22 55//22 26//22
f 21//23 50//23 51//23
f 43//24 44//24 15//24
f 52//25 47//25 18//25
f 57//26 58//26 29//26
f 36//20 37//20 8//20
f 22//27 51//27 52//27
f 35//28 36//28 7//28
f 43//1 42//1 51//1
f 51//1 50//1 43//1
f 27//2 28//2 29//2
f 25//2 26//2 27//2
f 27//2 29//2 24//2
f 9//2 10//2 8//2
f 7//2 8//2 10//2
f 18//2 19//2 17//2
f 16//2 20//2 21//2
f 18//2 17//2 12//2
f 15//2 16//2 21//2
f 23//2 18//2 13//2
f 15//2 21//2 14//2
f 18//2 12//2 13//2
f 14//2 21//2 22//2
f 22//2 23//2 13//2
f 9//2 1//2 3//2
f 7//2 10//2 11//2
f 1//2 2//2 3//2
f 6//2 7//2 11//2
f 11//2 9//2 3//2
f 4//2 5//2 6//2
f 11//2 3//2 4//2
f 37//1 36//1 39//1
f 39//1 38//1 37//1
f 36//1 35//1 39//1
f 16//2 17//2 20//2
f 44//1 43//1 50//1
f 52//1 42//1 47//1
f 45//1 44//1 50//1
f 47//1 42//1 41//1
f 45//1 50//1 49//1
f 47//1 41//1 46//1
f 46//1 45//1 49//1
f 48//1 47//1 46//1
f 56//1 55//1 54//1
f 58//1 57//1 56//1
f 56//1 54//1 53//1
f 31//1 30//1 32//1
f 40//1 39//1 35//1
f 32//1 30//1 38//1
f 40//1 35//1 33//1
f 32//1 38//1 40//1
f 35//1 34//1 33//1
f 25//3 24//3 54//3
f 24//4 29//4 53//4
f 19//5 48//5 20//5
f 12//6 17//6 41//6
f 2//7 1//7 31//7
f 13//8 42//8 14//8
f 17//9 16//9 46//9
f 1//10 8//10 30//10
f 5//11 4//11 34//11
f 11//12 10//12 40//12
f 9//13 38//13 10//13
f 13//29 12//29 42//29
f 27//15 56//15 28//15
f 15//16 44//16 16//16
f 18//17 47//17 19//17
f 6//7 5//7 35//7
f 4//7 3//7 33//7
f 2//18 31//18 3//18
f 21//30 20//30 50//30
f 11//20 40//20 9//20
f 26//21 55//21 27//21
f 25//22 54//22 26//22
f 22//23 21//23 51//23
f 14//24 43//24 15//24
f 23//31 52//31 18//31
f 28//26 57//26 29//26
f 7//20 36//20 8//20
f 23//27 22//27 52//27
f 6//28 35//28 7//28
